<svg width="20" height="20" viewBox="0 0 36 36" fill="none" xmlns="http://www.w3.org/2000/svg">
<path d="M32.625 4.5H3.375C1.51102 4.5 0 6.01102 0 7.875V28.125C0 29.989 1.51102 31.5 3.375 31.5H32.625C34.489 31.5 36 29.989 36 28.125V7.875C36 6.01102 34.489 4.5 32.625 4.5ZM32.625 7.875V10.7441C31.0485 12.0279 28.5351 14.0243 23.1619 18.2317C21.9777 19.1631 19.6321 21.4008 18 21.3747C16.3682 21.4011 14.0218 19.1628 12.8381 18.2317C7.46578 14.0249 4.95176 12.0281 3.375 10.7441V7.875H32.625ZM3.375 28.125V15.0749C4.98614 16.3581 7.27095 18.1589 10.7535 20.8859C12.2903 22.0956 14.9816 24.7662 18 24.7499C21.0035 24.7662 23.6608 22.1344 25.2459 20.8865C28.7284 18.1595 31.0138 16.3583 32.625 15.0749V28.125H3.375Z" fill="white"/>
</svg>
