<svg width="307" height="89" viewBox="0 0 307 89" fill="none" xmlns="http://www.w3.org/2000/svg">
<ellipse cx="153.5" cy="44.5" rx="153.5" ry="44.5" fill="#00008B"/>
<path d="M50.6562 52.0625C50.6562 50.2917 50.0312 48.9375 48.7812 48C47.5312 47.0417 45.2812 46.0417 42.0312 45C38.7812 43.9375 36.2083 42.8958 34.3125 41.875C29.1458 39.0833 26.5625 35.3229 26.5625 30.5938C26.5625 28.1354 27.25 25.9479 28.625 24.0312C30.0208 22.0938 32.0104 20.5833 34.5938 19.5C37.1979 18.4167 40.1146 17.875 43.3438 17.875C46.5938 17.875 49.4896 18.4688 52.0312 19.6562C54.5729 20.8229 56.5417 22.4792 57.9375 24.625C59.3542 26.7708 60.0625 29.2083 60.0625 31.9375H50.6875C50.6875 29.8542 50.0312 28.2396 48.7188 27.0938C47.4062 25.9271 45.5625 25.3438 43.1875 25.3438C40.8958 25.3438 39.1146 25.8333 37.8438 26.8125C36.5729 27.7708 35.9375 29.0417 35.9375 30.625C35.9375 32.1042 36.6771 33.3438 38.1562 34.3438C39.6562 35.3438 41.8542 36.2812 44.75 37.1562C50.0833 38.7604 53.9688 40.75 56.4062 43.125C58.8438 45.5 60.0625 48.4583 60.0625 52C60.0625 55.9375 58.5729 59.0312 55.5938 61.2812C52.6146 63.5104 48.6042 64.625 43.5625 64.625C40.0625 64.625 36.875 63.9896 34 62.7188C31.125 61.4271 28.9271 59.6667 27.4062 57.4375C25.9062 55.2083 25.1562 52.625 25.1562 49.6875H34.5625C34.5625 54.7083 37.5625 57.2188 43.5625 57.2188C45.7917 57.2188 47.5312 56.7708 48.7812 55.875C50.0312 54.9583 50.6562 53.6875 50.6562 52.0625ZM78.125 50.4375L74.875 53.6875V64H65.8438V16H74.875V42.5938L76.625 40.3438L85.2812 30.1875H96.125L83.9062 44.2812L97.1875 64H86.8125L78.125 50.4375ZM112.656 51.2188L118.906 30.1875H128.594L115 69.25L114.25 71.0312C112.229 75.4479 108.896 77.6562 104.25 77.6562C102.938 77.6562 101.604 77.4583 100.25 77.0625V70.2188L101.625 70.25C103.333 70.25 104.604 69.9896 105.438 69.4688C106.292 68.9479 106.958 68.0833 107.438 66.875L108.5 64.0938L96.6562 30.1875H106.375L112.656 51.2188ZM149.594 47.3438H142.125V64H132.75V18.5H149.656C155.031 18.5 159.177 19.6979 162.094 22.0938C165.01 24.4896 166.469 27.875 166.469 32.25C166.469 35.3542 165.792 37.9479 164.438 40.0312C163.104 42.0938 161.073 43.7396 158.344 44.9688L168.188 63.5625V64H158.125L149.594 47.3438ZM142.125 39.75H149.688C152.042 39.75 153.865 39.1562 155.156 37.9688C156.448 36.7604 157.094 35.1042 157.094 33C157.094 30.8542 156.479 29.1667 155.25 27.9375C154.042 26.7083 152.177 26.0938 149.656 26.0938H142.125V39.75ZM182.562 64H173.5V30.1875H182.562V64ZM172.969 21.4375C172.969 20.0833 173.417 18.9688 174.312 18.0938C175.229 17.2188 176.469 16.7812 178.031 16.7812C179.573 16.7812 180.802 17.2188 181.719 18.0938C182.635 18.9688 183.094 20.0833 183.094 21.4375C183.094 22.8125 182.625 23.9375 181.688 24.8125C180.771 25.6875 179.552 26.125 178.031 26.125C176.51 26.125 175.281 25.6875 174.344 24.8125C173.427 23.9375 172.969 22.8125 172.969 21.4375ZM188.719 46.8438C188.719 41.6562 189.948 37.4792 192.406 34.3125C194.885 31.1458 198.219 29.5625 202.406 29.5625C206.115 29.5625 209 30.8333 211.062 33.375L211.438 30.1875H219.625V62.875C219.625 65.8333 218.948 68.4062 217.594 70.5938C216.26 72.7812 214.375 74.4479 211.938 75.5938C209.5 76.7396 206.646 77.3125 203.375 77.3125C200.896 77.3125 198.479 76.8125 196.125 75.8125C193.771 74.8333 191.99 73.5625 190.781 72L194.781 66.5C197.031 69.0208 199.76 70.2812 202.969 70.2812C205.365 70.2812 207.229 69.6354 208.562 68.3438C209.896 67.0729 210.562 65.2604 210.562 62.9062V61.0938C208.479 63.4479 205.74 64.625 202.344 64.625C198.281 64.625 194.99 63.0417 192.469 59.875C189.969 56.6875 188.719 52.4688 188.719 47.2188V46.8438ZM197.75 47.5C197.75 50.5625 198.365 52.9688 199.594 54.7188C200.823 56.4479 202.51 57.3125 204.656 57.3125C207.406 57.3125 209.375 56.2812 210.562 54.2188V40C209.354 37.9375 207.406 36.9062 204.719 36.9062C202.552 36.9062 200.844 37.7917 199.594 39.5625C198.365 41.3333 197.75 43.9792 197.75 47.5ZM235.406 33.875C237.802 31 240.812 29.5625 244.438 29.5625C251.771 29.5625 255.49 33.8229 255.594 42.3438V64H246.562V42.5938C246.562 40.6562 246.146 39.2292 245.312 38.3125C244.479 37.375 243.094 36.9062 241.156 36.9062C238.51 36.9062 236.594 37.9271 235.406 39.9688V64H226.375V16H235.406V33.875ZM273.219 21.875V30.1875H279V36.8125H273.219V53.6875C273.219 54.9375 273.458 55.8333 273.938 56.375C274.417 56.9167 275.333 57.1875 276.688 57.1875C277.688 57.1875 278.573 57.1146 279.344 56.9688V63.8125C277.573 64.3542 275.75 64.625 273.875 64.625C267.542 64.625 264.312 61.4271 264.188 55.0312V36.8125H259.25V30.1875H264.188V21.875H273.219Z" fill="#FFC107"/>
</svg>
