<svg width="20" height="20" viewBox="0 0 20 36" fill="none" xmlns="http://www.w3.org/2000/svg">
<path d="M19.2735 1.73045L15.211 0.0429479C14.7696 -0.139865 14.3165 0.274979 14.1368 1.02029L12.2619 8.89529C12.0978 9.58435 12.2072 10.3929 12.5314 10.864L14.8985 14.3515C13.4923 19.7445 11.0353 24.2304 7.97681 26.8109L6.03935 22.55C5.77373 21.9664 5.32842 21.7695 4.94562 22.0648L0.570708 25.4398C0.152748 25.7703 -0.0777165 26.5859 0.0238439 27.3804L0.961325 34.6929C1.05898 35.4523 1.43397 36.0008 1.87537 36.0008C11.8791 36.0008 20 21.4109 20 3.37576C20 2.58826 19.6992 1.90623 19.2735 1.73045Z" fill="white"/>
</svg>
