<svg width="255" height="74" viewBox="0 0 255 74" fill="none" xmlns="http://www.w3.org/2000/svg">
<rect width="200" height="74" fill="#49493F"/>
<path d="M52.1562 41.4844H45.9922L44.8203 45H41.082L47.4336 27.9375H50.6914L57.0781 45H53.3398L52.1562 41.4844ZM46.9414 38.6367H51.207L49.0625 32.25L46.9414 38.6367ZM58.6719 45V27.9375H63.9219C65.4219 27.9375 66.7617 28.2773 67.9414 28.957C69.1289 29.6289 70.0547 30.5898 70.7188 31.8398C71.3828 33.082 71.7148 34.4961 71.7148 36.082V36.8672C71.7148 38.4531 71.3867 39.8633 70.7305 41.0977C70.082 42.332 69.1641 43.2891 67.9766 43.9688C66.7891 44.6484 65.4492 44.9922 63.957 45H58.6719ZM62.1875 30.7852V42.1758H63.8867C65.2617 42.1758 66.3125 41.7266 67.0391 40.8281C67.7656 39.9297 68.1367 38.6445 68.1523 36.9727V36.0703C68.1523 34.3359 67.793 33.0234 67.0742 32.1328C66.3555 31.2344 65.3047 30.7852 63.9219 30.7852H62.1875ZM80.3281 40.7695L84.1953 27.9375H88.1094L82.168 45H78.5L72.582 27.9375H76.4844L80.3281 40.7695ZM99.9922 37.6055H93.2422V42.1758H101.164V45H89.7266V27.9375H101.141V30.7852H93.2422V34.8516H99.9922V37.6055ZM117.102 45H113.586L106.742 33.7734V45H103.227V27.9375H106.742L113.598 39.1875V27.9375H117.102V45ZM132.664 30.7852H127.438V45H123.922V30.7852H118.766V27.9375H132.664V30.7852ZM147.594 27.9375V39.1758C147.594 41.043 147.008 42.5195 145.836 43.6055C144.672 44.6914 143.078 45.2344 141.055 45.2344C139.062 45.2344 137.48 44.707 136.309 43.6523C135.137 42.5977 134.539 41.1484 134.516 39.3047V27.9375H138.031V39.1992C138.031 40.3164 138.297 41.1328 138.828 41.6484C139.367 42.1562 140.109 42.4102 141.055 42.4102C143.031 42.4102 144.035 41.3711 144.066 39.293V27.9375H147.594ZM156.793 38.7539H153.992V45H150.477V27.9375H156.816C158.832 27.9375 160.387 28.3867 161.48 29.2852C162.574 30.1836 163.121 31.4531 163.121 33.0938C163.121 34.2578 162.867 35.2305 162.359 36.0117C161.859 36.7852 161.098 37.4023 160.074 37.8633L163.766 44.8359V45H159.992L156.793 38.7539ZM153.992 35.9062H156.828C157.711 35.9062 158.395 35.6836 158.879 35.2383C159.363 34.7852 159.605 34.1641 159.605 33.375C159.605 32.5703 159.375 31.9375 158.914 31.4766C158.461 31.0156 157.762 30.7852 156.816 30.7852H153.992V35.9062ZM176.07 37.6055H169.32V42.1758H177.242V45H165.805V27.9375H177.219V30.7852H169.32V34.8516H176.07V37.6055Z" fill="white"/>
</svg>
