<svg width="255" height="74" viewBox="0 0 255 74" fill="none" xmlns="http://www.w3.org/2000/svg">
<rect width="200" height="74" fill="#286D27"/>
<path d="M55.918 39.3164C55.7852 41.1523 55.1055 42.5977 53.8789 43.6523C52.6602 44.707 51.0508 45.2344 49.0508 45.2344C46.8633 45.2344 45.1406 44.5 43.8828 43.0312C42.6328 41.5547 42.0078 39.5312 42.0078 36.9609V35.918C42.0078 34.2773 42.2969 32.832 42.875 31.582C43.4531 30.332 44.2773 29.375 45.3477 28.7109C46.4258 28.0391 47.6758 27.7031 49.0977 27.7031C51.0664 27.7031 52.6523 28.2305 53.8555 29.2852C55.0586 30.3398 55.7539 31.8203 55.9414 33.7266H52.4258C52.3398 32.625 52.0312 31.8281 51.5 31.3359C50.9766 30.8359 50.1758 30.5859 49.0977 30.5859C47.9258 30.5859 47.0469 31.0078 46.4609 31.8516C45.8828 32.6875 45.5859 33.9883 45.5703 35.7539V37.043C45.5703 38.8867 45.8477 40.2344 46.4023 41.0859C46.9648 41.9375 47.8477 42.3633 49.0508 42.3633C50.1367 42.3633 50.9453 42.1172 51.4766 41.625C52.0156 41.125 52.3242 40.3555 52.4023 39.3164H55.918ZM72.1133 45H68.5977V37.6875H61.7422V45H58.2266V27.9375H61.7422V34.8516H68.5977V27.9375H72.1133V45ZM78.9336 45H75.418V27.9375H78.9336V45ZM85.7188 42.1758H93.1836V45H82.2031V27.9375H85.7188V42.1758ZM95.2109 45V27.9375H100.461C101.961 27.9375 103.301 28.2773 104.48 28.957C105.668 29.6289 106.594 30.5898 107.258 31.8398C107.922 33.082 108.254 34.4961 108.254 36.082V36.8672C108.254 38.4531 107.926 39.8633 107.27 41.0977C106.621 42.332 105.703 43.2891 104.516 43.9688C103.328 44.6484 101.988 44.9922 100.496 45H95.2109ZM98.7266 30.7852V42.1758H100.426C101.801 42.1758 102.852 41.7266 103.578 40.8281C104.305 39.9297 104.676 38.6445 104.691 36.9727V36.0703C104.691 34.3359 104.332 33.0234 103.613 32.1328C102.895 31.2344 101.844 30.7852 100.461 30.7852H98.7266ZM117.137 38.7539H114.336V45H110.82V27.9375H117.16C119.176 27.9375 120.73 28.3867 121.824 29.2852C122.918 30.1836 123.465 31.4531 123.465 33.0938C123.465 34.2578 123.211 35.2305 122.703 36.0117C122.203 36.7852 121.441 37.4023 120.418 37.8633L124.109 44.8359V45H120.336L117.137 38.7539ZM114.336 35.9062H117.172C118.055 35.9062 118.738 35.6836 119.223 35.2383C119.707 34.7852 119.949 34.1641 119.949 33.375C119.949 32.5703 119.719 31.9375 119.258 31.4766C118.805 31.0156 118.105 30.7852 117.16 30.7852H114.336V35.9062ZM136.414 37.6055H129.664V42.1758H137.586V45H126.148V27.9375H137.562V30.7852H129.664V34.8516H136.414V37.6055ZM153.523 45H150.008L143.164 33.7734V45H139.648V27.9375H143.164L150.02 39.1875V27.9375H153.523V45Z" fill="white"/>
</svg>
