<svg width="255" height="74" viewBox="0 0 255 74" fill="none" xmlns="http://www.w3.org/2000/svg">
<rect width="240" height="74" fill="#381237"/>
<path d="M42.5234 45V27.9375H47.7734C49.2734 27.9375 50.6133 28.2773 51.793 28.957C52.9805 29.6289 53.9062 30.5898 54.5703 31.8398C55.2344 33.082 55.5664 34.4961 55.5664 36.082V36.8672C55.5664 38.4531 55.2383 39.8633 54.582 41.0977C53.9336 42.332 53.0156 43.2891 51.8281 43.9688C50.6406 44.6484 49.3008 44.9922 47.8086 45H42.5234ZM46.0391 30.7852V42.1758H47.7383C49.1133 42.1758 50.1641 41.7266 50.8906 40.8281C51.6172 39.9297 51.9883 38.6445 52.0039 36.9727V36.0703C52.0039 34.3359 51.6445 33.0234 50.9258 32.1328C50.207 31.2344 49.1562 30.7852 47.7734 30.7852H46.0391ZM72.1484 36.8555C72.1484 38.5352 71.8516 40.0078 71.2578 41.2734C70.6641 42.5391 69.8125 43.5156 68.7031 44.2031C67.6016 44.8906 66.3359 45.2344 64.9062 45.2344C63.4922 45.2344 62.2305 44.8945 61.1211 44.2148C60.0117 43.5352 59.1523 42.5664 58.543 41.3086C57.9336 40.043 57.625 38.5898 57.6172 36.9492V36.1055C57.6172 34.4258 57.918 32.9492 58.5195 31.6758C59.1289 30.3945 59.9844 29.4141 61.0859 28.7344C62.1953 28.0469 63.4609 27.7031 64.8828 27.7031C66.3047 27.7031 67.5664 28.0469 68.668 28.7344C69.7773 29.4141 70.6328 30.3945 71.2344 31.6758C71.8438 32.9492 72.1484 34.4219 72.1484 36.0938V36.8555ZM68.5859 36.082C68.5859 34.293 68.2656 32.9336 67.625 32.0039C66.9844 31.0742 66.0703 30.6094 64.8828 30.6094C63.7031 30.6094 62.793 31.0703 62.1523 31.9922C61.5117 32.9062 61.1875 34.25 61.1797 36.0234V36.8555C61.1797 38.5977 61.5 39.9492 62.1406 40.9102C62.7812 41.8711 63.7031 42.3516 64.9062 42.3516C66.0859 42.3516 66.9922 41.8906 67.625 40.9688C68.2578 40.0391 68.5781 38.6875 68.5859 36.9141V36.082ZM88.0977 39.3164C87.9648 41.1523 87.2852 42.5977 86.0586 43.6523C84.8398 44.707 83.2305 45.2344 81.2305 45.2344C79.043 45.2344 77.3203 44.5 76.0625 43.0312C74.8125 41.5547 74.1875 39.5312 74.1875 36.9609V35.918C74.1875 34.2773 74.4766 32.832 75.0547 31.582C75.6328 30.332 76.457 29.375 77.5273 28.7109C78.6055 28.0391 79.8555 27.7031 81.2773 27.7031C83.2461 27.7031 84.832 28.2305 86.0352 29.2852C87.2383 30.3398 87.9336 31.8203 88.1211 33.7266H84.6055C84.5195 32.625 84.2109 31.8281 83.6797 31.3359C83.1562 30.8359 82.3555 30.5859 81.2773 30.5859C80.1055 30.5859 79.2266 31.0078 78.6406 31.8516C78.0625 32.6875 77.7656 33.9883 77.75 35.7539V37.043C77.75 38.8867 78.0273 40.2344 78.582 41.0859C79.1445 41.9375 80.0273 42.3633 81.2305 42.3633C82.3164 42.3633 83.125 42.1172 83.6562 41.625C84.1953 41.125 84.5039 40.3555 84.582 39.3164H88.0977ZM103.32 27.9375V39.1758C103.32 41.043 102.734 42.5195 101.562 43.6055C100.398 44.6914 98.8047 45.2344 96.7812 45.2344C94.7891 45.2344 93.207 44.707 92.0352 43.6523C90.8633 42.5977 90.2656 41.1484 90.2422 39.3047V27.9375H93.7578V39.1992C93.7578 40.3164 94.0234 41.1328 94.5547 41.6484C95.0938 42.1562 95.8359 42.4102 96.7812 42.4102C98.7578 42.4102 99.7617 41.3711 99.793 39.293V27.9375H103.32ZM110.797 27.9375L115.18 40.3125L119.539 27.9375H124.156V45H120.629V40.3359L120.98 32.2852L116.375 45H113.961L109.367 32.2969L109.719 40.3359V45H106.203V27.9375H110.797ZM137.492 37.6055H130.742V42.1758H138.664V45H127.227V27.9375H138.641V30.7852H130.742V34.8516H137.492V37.6055ZM154.602 45H151.086L144.242 33.7734V45H140.727V27.9375H144.242L151.098 39.1875V27.9375H154.602V45ZM170.164 30.7852H164.938V45H161.422V30.7852H156.266V27.9375H170.164V30.7852ZM180.406 41.4844H174.242L173.07 45H169.332L175.684 27.9375H178.941L185.328 45H181.59L180.406 41.4844ZM175.191 38.6367H179.457L177.312 32.25L175.191 38.6367ZM193.238 38.7539H190.438V45H186.922V27.9375H193.262C195.277 27.9375 196.832 28.3867 197.926 29.2852C199.02 30.1836 199.566 31.4531 199.566 33.0938C199.566 34.2578 199.312 35.2305 198.805 36.0117C198.305 36.7852 197.543 37.4023 196.52 37.8633L200.211 44.8359V45H196.438L193.238 38.7539ZM190.438 35.9062H193.273C194.156 35.9062 194.84 35.6836 195.324 35.2383C195.809 34.7852 196.051 34.1641 196.051 33.375C196.051 32.5703 195.82 31.9375 195.359 31.4766C194.906 31.0156 194.207 30.7852 193.262 30.7852H190.438V35.9062ZM207.57 35.625L211.121 27.9375H214.965L209.363 38.8125V45H205.789V38.8125L200.188 27.9375H204.043L207.57 35.625Z" fill="white"/>
</svg>
