<svg width="255" height="74" viewBox="0 0 255 74" fill="none" xmlns="http://www.w3.org/2000/svg">
<rect width="200" height="74" fill="#98683C"/>
<path d="M60.7891 37.6055H54.0391V42.1758H61.9609V45H50.5234V27.9375H61.9375V30.7852H54.0391V34.8516H60.7891V37.6055ZM64.0234 45V27.9375H69.2734C70.7734 27.9375 72.1133 28.2773 73.293 28.957C74.4805 29.6289 75.4062 30.5898 76.0703 31.8398C76.7344 33.082 77.0664 34.4961 77.0664 36.082V36.8672C77.0664 38.4531 76.7383 39.8633 76.082 41.0977C75.4336 42.332 74.5156 43.2891 73.3281 43.9688C72.1406 44.6484 70.8008 44.9922 69.3086 45H64.0234ZM67.5391 30.7852V42.1758H69.2383C70.6133 42.1758 71.6641 41.7266 72.3906 40.8281C73.1172 39.9297 73.4883 38.6445 73.5039 36.9727V36.0703C73.5039 34.3359 73.1445 33.0234 72.4258 32.1328C71.707 31.2344 70.6562 30.7852 69.2734 30.7852H67.5391ZM92.5469 27.9375V39.1758C92.5469 41.043 91.9609 42.5195 90.7891 43.6055C89.625 44.6914 88.0312 45.2344 86.0078 45.2344C84.0156 45.2344 82.4336 44.707 81.2617 43.6523C80.0898 42.5977 79.4922 41.1484 79.4688 39.3047V27.9375H82.9844V39.1992C82.9844 40.3164 83.25 41.1328 83.7812 41.6484C84.3203 42.1562 85.0625 42.4102 86.0078 42.4102C87.9844 42.4102 88.9883 41.3711 89.0195 39.293V27.9375H92.5469ZM108.824 39.3164C108.691 41.1523 108.012 42.5977 106.785 43.6523C105.566 44.707 103.957 45.2344 101.957 45.2344C99.7695 45.2344 98.0469 44.5 96.7891 43.0312C95.5391 41.5547 94.9141 39.5312 94.9141 36.9609V35.918C94.9141 34.2773 95.2031 32.832 95.7812 31.582C96.3594 30.332 97.1836 29.375 98.2539 28.7109C99.332 28.0391 100.582 27.7031 102.004 27.7031C103.973 27.7031 105.559 28.2305 106.762 29.2852C107.965 30.3398 108.66 31.8203 108.848 33.7266H105.332C105.246 32.625 104.938 31.8281 104.406 31.3359C103.883 30.8359 103.082 30.5859 102.004 30.5859C100.832 30.5859 99.9531 31.0078 99.3672 31.8516C98.7891 32.6875 98.4922 33.9883 98.4766 35.7539V37.043C98.4766 38.8867 98.7539 40.2344 99.3086 41.0859C99.8711 41.9375 100.754 42.3633 101.957 42.3633C103.043 42.3633 103.852 42.1172 104.383 41.625C104.922 41.125 105.23 40.3555 105.309 39.3164H108.824ZM120.766 41.4844H114.602L113.43 45H109.691L116.043 27.9375H119.301L125.688 45H121.949L120.766 41.4844ZM115.551 38.6367H119.816L117.672 32.25L115.551 38.6367ZM138.719 30.7852H133.492V45H129.977V30.7852H124.82V27.9375H138.719V30.7852ZM144.473 45H140.957V27.9375H144.473V45ZM161.758 36.8555C161.758 38.5352 161.461 40.0078 160.867 41.2734C160.273 42.5391 159.422 43.5156 158.312 44.2031C157.211 44.8906 155.945 45.2344 154.516 45.2344C153.102 45.2344 151.84 44.8945 150.73 44.2148C149.621 43.5352 148.762 42.5664 148.152 41.3086C147.543 40.043 147.234 38.5898 147.227 36.9492V36.1055C147.227 34.4258 147.527 32.9492 148.129 31.6758C148.738 30.3945 149.594 29.4141 150.695 28.7344C151.805 28.0469 153.07 27.7031 154.492 27.7031C155.914 27.7031 157.176 28.0469 158.277 28.7344C159.387 29.4141 160.242 30.3945 160.844 31.6758C161.453 32.9492 161.758 34.4219 161.758 36.0938V36.8555ZM158.195 36.082C158.195 34.293 157.875 32.9336 157.234 32.0039C156.594 31.0742 155.68 30.6094 154.492 30.6094C153.312 30.6094 152.402 31.0703 151.762 31.9922C151.121 32.9062 150.797 34.25 150.789 36.0234V36.8555C150.789 38.5977 151.109 39.9492 151.75 40.9102C152.391 41.8711 153.312 42.3516 154.516 42.3516C155.695 42.3516 156.602 41.8906 157.234 40.9688C157.867 40.0391 158.188 38.6875 158.195 36.9141V36.082ZM178.188 45H174.672L167.828 33.7734V45H164.312V27.9375H167.828L174.684 39.1875V27.9375H178.188V45Z" fill="white"/>
</svg>
