<svg width="255" height="74" viewBox="0 0 255 74" fill="none" xmlns="http://www.w3.org/2000/svg">
<rect width="200" height="74" fill="#206651"/>
<path d="M58.7891 38.0273H52.0391V45H48.5234V27.9375H59.6328V30.7852H52.0391V35.1914H58.7891V38.0273ZM69.0547 41.4844H62.8906L61.7188 45H57.9805L64.332 27.9375H67.5898L73.9766 45H70.2383L69.0547 41.4844ZM63.8398 38.6367H68.1055L65.9609 32.25L63.8398 38.6367ZM89.4453 45H85.9297L79.0859 33.7734V45H75.5703V27.9375H79.0859L85.9414 39.1875V27.9375H89.4453V45ZM105.008 30.7852H99.7812V45H96.2656V30.7852H91.1094V27.9375H105.008V30.7852ZM115.25 41.4844H109.086L107.914 45H104.176L110.527 27.9375H113.785L120.172 45H116.434L115.25 41.4844ZM110.035 38.6367H114.301L112.156 32.25L110.035 38.6367ZM130.613 40.5234C130.613 39.8594 130.379 39.3516 129.91 39C129.441 38.6406 128.598 38.2656 127.379 37.875C126.16 37.4766 125.195 37.0859 124.484 36.7031C122.547 35.6562 121.578 34.2461 121.578 32.4727C121.578 31.5508 121.836 30.7305 122.352 30.0117C122.875 29.2852 123.621 28.7188 124.59 28.3125C125.566 27.9062 126.66 27.7031 127.871 27.7031C129.09 27.7031 130.176 27.9258 131.129 28.3711C132.082 28.8086 132.82 29.4297 133.344 30.2344C133.875 31.0391 134.141 31.9531 134.141 32.9766H130.625C130.625 32.1953 130.379 31.5898 129.887 31.1602C129.395 30.7227 128.703 30.5039 127.812 30.5039C126.953 30.5039 126.285 30.6875 125.809 31.0547C125.332 31.4141 125.094 31.8906 125.094 32.4844C125.094 33.0391 125.371 33.5039 125.926 33.8789C126.488 34.2539 127.312 34.6055 128.398 34.9336C130.398 35.5352 131.855 36.2812 132.77 37.1719C133.684 38.0625 134.141 39.1719 134.141 40.5C134.141 41.9766 133.582 43.1367 132.465 43.9805C131.348 44.8164 129.844 45.2344 127.953 45.2344C126.641 45.2344 125.445 44.9961 124.367 44.5195C123.289 44.0352 122.465 43.375 121.895 42.5391C121.332 41.7031 121.051 40.7344 121.051 39.6328H124.578C124.578 41.5156 125.703 42.457 127.953 42.457C128.789 42.457 129.441 42.2891 129.91 41.9531C130.379 41.6094 130.613 41.1328 130.613 40.5234ZM142.414 35.625L145.965 27.9375H149.809L144.207 38.8125V45H140.633V38.8125L135.031 27.9375H138.887L142.414 35.625Z" fill="white"/>
</svg>
