<svg width="255" height="74" viewBox="0 0 255 74" fill="none" xmlns="http://www.w3.org/2000/svg">
<rect width="200" height="74" fill="#6E7CAB"/>
<path d="M60.4102 45H56.8945V37.6875H50.0391V45H46.5234V27.9375H50.0391V34.8516H56.8945V27.9375H60.4102V45ZM67.2305 45H63.7148V27.9375H67.2305V45ZM79.3477 40.5234C79.3477 39.8594 79.1133 39.3516 78.6445 39C78.1758 38.6406 77.332 38.2656 76.1133 37.875C74.8945 37.4766 73.9297 37.0859 73.2188 36.7031C71.2812 35.6562 70.3125 34.2461 70.3125 32.4727C70.3125 31.5508 70.5703 30.7305 71.0859 30.0117C71.6094 29.2852 72.3555 28.7188 73.3242 28.3125C74.3008 27.9062 75.3945 27.7031 76.6055 27.7031C77.8242 27.7031 78.9102 27.9258 79.8633 28.3711C80.8164 28.8086 81.5547 29.4297 82.0781 30.2344C82.6094 31.0391 82.875 31.9531 82.875 32.9766H79.3594C79.3594 32.1953 79.1133 31.5898 78.6211 31.1602C78.1289 30.7227 77.4375 30.5039 76.5469 30.5039C75.6875 30.5039 75.0195 30.6875 74.543 31.0547C74.0664 31.4141 73.8281 31.8906 73.8281 32.4844C73.8281 33.0391 74.1055 33.5039 74.6602 33.8789C75.2227 34.2539 76.0469 34.6055 77.1328 34.9336C79.1328 35.5352 80.5898 36.2812 81.5039 37.1719C82.418 38.0625 82.875 39.1719 82.875 40.5C82.875 41.9766 82.3164 43.1367 81.1992 43.9805C80.082 44.8164 78.5781 45.2344 76.6875 45.2344C75.375 45.2344 74.1797 44.9961 73.1016 44.5195C72.0234 44.0352 71.1992 43.375 70.6289 42.5391C70.0664 41.7031 69.7852 40.7344 69.7852 39.6328H73.3125C73.3125 41.5156 74.4375 42.457 76.6875 42.457C77.5234 42.457 78.1758 42.2891 78.6445 41.9531C79.1133 41.6094 79.3477 41.1328 79.3477 40.5234ZM98.1094 30.7852H92.8828V45H89.3672V30.7852H84.2109V27.9375H98.1094V30.7852ZM113.812 36.8555C113.812 38.5352 113.516 40.0078 112.922 41.2734C112.328 42.5391 111.477 43.5156 110.367 44.2031C109.266 44.8906 108 45.2344 106.57 45.2344C105.156 45.2344 103.895 44.8945 102.785 44.2148C101.676 43.5352 100.816 42.5664 100.207 41.3086C99.5977 40.043 99.2891 38.5898 99.2812 36.9492V36.1055C99.2812 34.4258 99.582 32.9492 100.184 31.6758C100.793 30.3945 101.648 29.4141 102.75 28.7344C103.859 28.0469 105.125 27.7031 106.547 27.7031C107.969 27.7031 109.23 28.0469 110.332 28.7344C111.441 29.4141 112.297 30.3945 112.898 31.6758C113.508 32.9492 113.812 34.4219 113.812 36.0938V36.8555ZM110.25 36.082C110.25 34.293 109.93 32.9336 109.289 32.0039C108.648 31.0742 107.734 30.6094 106.547 30.6094C105.367 30.6094 104.457 31.0703 103.816 31.9922C103.176 32.9062 102.852 34.25 102.844 36.0234V36.8555C102.844 38.5977 103.164 39.9492 103.805 40.9102C104.445 41.8711 105.367 42.3516 106.57 42.3516C107.75 42.3516 108.656 41.8906 109.289 40.9688C109.922 40.0391 110.242 38.6875 110.25 36.9141V36.082ZM122.684 38.7539H119.883V45H116.367V27.9375H122.707C124.723 27.9375 126.277 28.3867 127.371 29.2852C128.465 30.1836 129.012 31.4531 129.012 33.0938C129.012 34.2578 128.758 35.2305 128.25 36.0117C127.75 36.7852 126.988 37.4023 125.965 37.8633L129.656 44.8359V45H125.883L122.684 38.7539ZM119.883 35.9062H122.719C123.602 35.9062 124.285 35.6836 124.77 35.2383C125.254 34.7852 125.496 34.1641 125.496 33.375C125.496 32.5703 125.266 31.9375 124.805 31.4766C124.352 31.0156 123.652 30.7852 122.707 30.7852H119.883V35.9062ZM137.016 35.625L140.566 27.9375H144.41L138.809 38.8125V45H135.234V38.8125L129.633 27.9375H133.488L137.016 35.625Z" fill="white"/>
</svg>
