<svg width="255" height="74" viewBox="0 0 255 74" fill="none" xmlns="http://www.w3.org/2000/svg">
<rect width="240" height="74" fill="#24837D"/>
<path d="M50.1172 27.9375L54.5 40.3125L58.8594 27.9375H63.4766V45H59.9492V40.3359L60.3008 32.2852L55.6953 45H53.2812L48.6875 32.2969L49.0391 40.3359V45H45.5234V27.9375H50.1172ZM80.5625 36.8555C80.5625 38.5352 80.2656 40.0078 79.6719 41.2734C79.0781 42.5391 78.2266 43.5156 77.1172 44.2031C76.0156 44.8906 74.75 45.2344 73.3203 45.2344C71.9062 45.2344 70.6445 44.8945 69.5352 44.2148C68.4258 43.5352 67.5664 42.5664 66.957 41.3086C66.3477 40.043 66.0391 38.5898 66.0312 36.9492V36.1055C66.0312 34.4258 66.332 32.9492 66.9336 31.6758C67.543 30.3945 68.3984 29.4141 69.5 28.7344C70.6094 28.0469 71.875 27.7031 73.2969 27.7031C74.7188 27.7031 75.9805 28.0469 77.082 28.7344C78.1914 29.4141 79.0469 30.3945 79.6484 31.6758C80.2578 32.9492 80.5625 34.4219 80.5625 36.0938V36.8555ZM77 36.082C77 34.293 76.6797 32.9336 76.0391 32.0039C75.3984 31.0742 74.4844 30.6094 73.2969 30.6094C72.1172 30.6094 71.207 31.0703 70.5664 31.9922C69.9258 32.9062 69.6016 34.25 69.5938 36.0234V36.8555C69.5938 38.5977 69.9141 39.9492 70.5547 40.9102C71.1953 41.8711 72.1172 42.3516 73.3203 42.3516C74.5 42.3516 75.4062 41.8906 76.0391 40.9688C76.6719 40.0391 76.9922 38.6875 77 36.9141V36.082ZM94.9531 30.7852H89.7266V45H86.2109V30.7852H81.0547V27.9375H94.9531V30.7852ZM100.707 45H97.1914V27.9375H100.707V45ZM110.281 40.7695L114.148 27.9375H118.062L112.121 45H108.453L102.535 27.9375H106.438L110.281 40.7695ZM128.422 41.4844H122.258L121.086 45H117.348L123.699 27.9375H126.957L133.344 45H129.605L128.422 41.4844ZM123.207 38.6367H127.473L125.328 32.25L123.207 38.6367ZM146.375 30.7852H141.148V45H137.633V30.7852H132.477V27.9375H146.375V30.7852ZM152.129 45H148.613V27.9375H152.129V45ZM169.414 36.8555C169.414 38.5352 169.117 40.0078 168.523 41.2734C167.93 42.5391 167.078 43.5156 165.969 44.2031C164.867 44.8906 163.602 45.2344 162.172 45.2344C160.758 45.2344 159.496 44.8945 158.387 44.2148C157.277 43.5352 156.418 42.5664 155.809 41.3086C155.199 40.043 154.891 38.5898 154.883 36.9492V36.1055C154.883 34.4258 155.184 32.9492 155.785 31.6758C156.395 30.3945 157.25 29.4141 158.352 28.7344C159.461 28.0469 160.727 27.7031 162.148 27.7031C163.57 27.7031 164.832 28.0469 165.934 28.7344C167.043 29.4141 167.898 30.3945 168.5 31.6758C169.109 32.9492 169.414 34.4219 169.414 36.0938V36.8555ZM165.852 36.082C165.852 34.293 165.531 32.9336 164.891 32.0039C164.25 31.0742 163.336 30.6094 162.148 30.6094C160.969 30.6094 160.059 31.0703 159.418 31.9922C158.777 32.9062 158.453 34.25 158.445 36.0234V36.8555C158.445 38.5977 158.766 39.9492 159.406 40.9102C160.047 41.8711 160.969 42.3516 162.172 42.3516C163.352 42.3516 164.258 41.8906 164.891 40.9688C165.523 40.0391 165.844 38.6875 165.852 36.9141V36.082ZM185.844 45H182.328L175.484 33.7734V45H171.969V27.9375H175.484L182.34 39.1875V27.9375H185.844V45ZM198.758 41.4844H192.594L191.422 45H187.684L194.035 27.9375H197.293L203.68 45H199.941L198.758 41.4844ZM193.543 38.6367H197.809L195.664 32.25L193.543 38.6367ZM208.789 42.1758H216.254V45H205.273V27.9375H208.789V42.1758Z" fill="white"/>
</svg>
