<svg width="255" height="74" viewBox="0 0 255 74" fill="none" xmlns="http://www.w3.org/2000/svg">
<rect width="200" height="74" fill="#8E3C86"/>
<path d="M47.1172 27.9375L51.5 40.3125L55.8594 27.9375H60.4766V45H56.9492V40.3359L57.3008 32.2852L52.6953 45H50.2812L45.6875 32.2969L46.0391 40.3359V45H42.5234V27.9375H47.1172ZM69.1016 35.625L72.6523 27.9375H76.4961L70.8945 38.8125V45H67.3203V38.8125L61.7188 27.9375H65.5742L69.1016 35.625ZM86.7148 40.5234C86.7148 39.8594 86.4805 39.3516 86.0117 39C85.543 38.6406 84.6992 38.2656 83.4805 37.875C82.2617 37.4766 81.2969 37.0859 80.5859 36.7031C78.6484 35.6562 77.6797 34.2461 77.6797 32.4727C77.6797 31.5508 77.9375 30.7305 78.4531 30.0117C78.9766 29.2852 79.7227 28.7188 80.6914 28.3125C81.668 27.9062 82.7617 27.7031 83.9727 27.7031C85.1914 27.7031 86.2773 27.9258 87.2305 28.3711C88.1836 28.8086 88.9219 29.4297 89.4453 30.2344C89.9766 31.0391 90.2422 31.9531 90.2422 32.9766H86.7266C86.7266 32.1953 86.4805 31.5898 85.9883 31.1602C85.4961 30.7227 84.8047 30.5039 83.9141 30.5039C83.0547 30.5039 82.3867 30.6875 81.9102 31.0547C81.4336 31.4141 81.1953 31.8906 81.1953 32.4844C81.1953 33.0391 81.4727 33.5039 82.0273 33.8789C82.5898 34.2539 83.4141 34.6055 84.5 34.9336C86.5 35.5352 87.957 36.2812 88.8711 37.1719C89.7852 38.0625 90.2422 39.1719 90.2422 40.5C90.2422 41.9766 89.6836 43.1367 88.5664 43.9805C87.4492 44.8164 85.9453 45.2344 84.0547 45.2344C82.7422 45.2344 81.5469 44.9961 80.4688 44.5195C79.3906 44.0352 78.5664 43.375 77.9961 42.5391C77.4336 41.7031 77.1523 40.7344 77.1523 39.6328H80.6797C80.6797 41.5156 81.8047 42.457 84.0547 42.457C84.8906 42.457 85.543 42.2891 86.0117 41.9531C86.4805 41.6094 86.7148 41.1328 86.7148 40.5234ZM105.477 30.7852H100.25V45H96.7344V30.7852H91.5781V27.9375H105.477V30.7852ZM117.758 37.6055H111.008V42.1758H118.93V45H107.492V27.9375H118.906V30.7852H111.008V34.8516H117.758V37.6055ZM127.309 38.7539H124.508V45H120.992V27.9375H127.332C129.348 27.9375 130.902 28.3867 131.996 29.2852C133.09 30.1836 133.637 31.4531 133.637 33.0938C133.637 34.2578 133.383 35.2305 132.875 36.0117C132.375 36.7852 131.613 37.4023 130.59 37.8633L134.281 44.8359V45H130.508L127.309 38.7539ZM124.508 35.9062H127.344C128.227 35.9062 128.91 35.6836 129.395 35.2383C129.879 34.7852 130.121 34.1641 130.121 33.375C130.121 32.5703 129.891 31.9375 129.43 31.4766C128.977 31.0156 128.277 30.7852 127.332 30.7852H124.508V35.9062ZM141.641 35.625L145.191 27.9375H149.035L143.434 38.8125V45H139.859V38.8125L134.258 27.9375H138.113L141.641 35.625Z" fill="white"/>
</svg>
