<svg width="255" height="74" viewBox="0 0 255 74" fill="none" xmlns="http://www.w3.org/2000/svg">
<rect width="200" height="74" fill="#272F73"/>
<path d="M51.8398 38.7539H49.0391V45H45.5234V27.9375H51.8633C53.8789 27.9375 55.4336 28.3867 56.5273 29.2852C57.6211 30.1836 58.168 31.4531 58.168 33.0938C58.168 34.2578 57.9141 35.2305 57.4062 36.0117C56.9062 36.7852 56.1445 37.4023 55.1211 37.8633L58.8125 44.8359V45H55.0391L51.8398 38.7539ZM49.0391 35.9062H51.875C52.7578 35.9062 53.4414 35.6836 53.9258 35.2383C54.4102 34.7852 54.6523 34.1641 54.6523 33.375C54.6523 32.5703 54.4219 31.9375 53.9609 31.4766C53.5078 31.0156 52.8086 30.7852 51.8633 30.7852H49.0391V35.9062ZM74.8672 36.8555C74.8672 38.5352 74.5703 40.0078 73.9766 41.2734C73.3828 42.5391 72.5312 43.5156 71.4219 44.2031C70.3203 44.8906 69.0547 45.2344 67.625 45.2344C66.2109 45.2344 64.9492 44.8945 63.8398 44.2148C62.7305 43.5352 61.8711 42.5664 61.2617 41.3086C60.6523 40.043 60.3438 38.5898 60.3359 36.9492V36.1055C60.3359 34.4258 60.6367 32.9492 61.2383 31.6758C61.8477 30.3945 62.7031 29.4141 63.8047 28.7344C64.9141 28.0469 66.1797 27.7031 67.6016 27.7031C69.0234 27.7031 70.2852 28.0469 71.3867 28.7344C72.4961 29.4141 73.3516 30.3945 73.9531 31.6758C74.5625 32.9492 74.8672 34.4219 74.8672 36.0938V36.8555ZM71.3047 36.082C71.3047 34.293 70.9844 32.9336 70.3438 32.0039C69.7031 31.0742 68.7891 30.6094 67.6016 30.6094C66.4219 30.6094 65.5117 31.0703 64.8711 31.9922C64.2305 32.9062 63.9062 34.25 63.8984 36.0234V36.8555C63.8984 38.5977 64.2188 39.9492 64.8594 40.9102C65.5 41.8711 66.4219 42.3516 67.625 42.3516C68.8047 42.3516 69.7109 41.8906 70.3438 40.9688C70.9766 40.0391 71.2969 38.6875 71.3047 36.9141V36.082ZM82.0156 27.9375L86.3984 40.3125L90.7578 27.9375H95.375V45H91.8477V40.3359L92.1992 32.2852L87.5938 45H85.1797L80.5859 32.2969L80.9375 40.3359V45H77.4219V27.9375H82.0156ZM108.289 41.4844H102.125L100.953 45H97.2148L103.566 27.9375H106.824L113.211 45H109.473L108.289 41.4844ZM103.074 38.6367H107.34L105.195 32.25L103.074 38.6367ZM128.68 45H125.164L118.32 33.7734V45H114.805V27.9375H118.32L125.176 39.1875V27.9375H128.68V45ZM145.145 39.3164C145.012 41.1523 144.332 42.5977 143.105 43.6523C141.887 44.707 140.277 45.2344 138.277 45.2344C136.09 45.2344 134.367 44.5 133.109 43.0312C131.859 41.5547 131.234 39.5312 131.234 36.9609V35.918C131.234 34.2773 131.523 32.832 132.102 31.582C132.68 30.332 133.504 29.375 134.574 28.7109C135.652 28.0391 136.902 27.7031 138.324 27.7031C140.293 27.7031 141.879 28.2305 143.082 29.2852C144.285 30.3398 144.98 31.8203 145.168 33.7266H141.652C141.566 32.625 141.258 31.8281 140.727 31.3359C140.203 30.8359 139.402 30.5859 138.324 30.5859C137.152 30.5859 136.273 31.0078 135.688 31.8516C135.109 32.6875 134.812 33.9883 134.797 35.7539V37.043C134.797 38.8867 135.074 40.2344 135.629 41.0859C136.191 41.9375 137.074 42.3633 138.277 42.3633C139.363 42.3633 140.172 42.1172 140.703 41.625C141.242 41.125 141.551 40.3555 141.629 39.3164H145.145ZM157.719 37.6055H150.969V42.1758H158.891V45H147.453V27.9375H158.867V30.7852H150.969V34.8516H157.719V37.6055Z" fill="white"/>
</svg>
