<svg width="255" height="74" viewBox="0 0 255 74" fill="none" xmlns="http://www.w3.org/2000/svg">
<rect width="200" height="74" fill="#A3A60C"/>
<path d="M54.3711 40.5234C54.3711 39.8594 54.1367 39.3516 53.668 39C53.1992 38.6406 52.3555 38.2656 51.1367 37.875C49.918 37.4766 48.9531 37.0859 48.2422 36.7031C46.3047 35.6562 45.3359 34.2461 45.3359 32.4727C45.3359 31.5508 45.5938 30.7305 46.1094 30.0117C46.6328 29.2852 47.3789 28.7188 48.3477 28.3125C49.3242 27.9062 50.418 27.7031 51.6289 27.7031C52.8477 27.7031 53.9336 27.9258 54.8867 28.3711C55.8398 28.8086 56.5781 29.4297 57.1016 30.2344C57.6328 31.0391 57.8984 31.9531 57.8984 32.9766H54.3828C54.3828 32.1953 54.1367 31.5898 53.6445 31.1602C53.1523 30.7227 52.4609 30.5039 51.5703 30.5039C50.7109 30.5039 50.043 30.6875 49.5664 31.0547C49.0898 31.4141 48.8516 31.8906 48.8516 32.4844C48.8516 33.0391 49.1289 33.5039 49.6836 33.8789C50.2461 34.2539 51.0703 34.6055 52.1562 34.9336C54.1562 35.5352 55.6133 36.2812 56.5273 37.1719C57.4414 38.0625 57.8984 39.1719 57.8984 40.5C57.8984 41.9766 57.3398 43.1367 56.2227 43.9805C55.1055 44.8164 53.6016 45.2344 51.7109 45.2344C50.3984 45.2344 49.2031 44.9961 48.125 44.5195C47.0469 44.0352 46.2227 43.375 45.6523 42.5391C45.0898 41.7031 44.8086 40.7344 44.8086 39.6328H48.3359C48.3359 41.5156 49.4609 42.457 51.7109 42.457C52.5469 42.457 53.1992 42.2891 53.668 41.9531C54.1367 41.6094 54.3711 41.1328 54.3711 40.5234ZM73.6836 39.3164C73.5508 41.1523 72.8711 42.5977 71.6445 43.6523C70.4258 44.707 68.8164 45.2344 66.8164 45.2344C64.6289 45.2344 62.9062 44.5 61.6484 43.0312C60.3984 41.5547 59.7734 39.5312 59.7734 36.9609V35.918C59.7734 34.2773 60.0625 32.832 60.6406 31.582C61.2188 30.332 62.043 29.375 63.1133 28.7109C64.1914 28.0391 65.4414 27.7031 66.8633 27.7031C68.832 27.7031 70.418 28.2305 71.6211 29.2852C72.8242 30.3398 73.5195 31.8203 73.707 33.7266H70.1914C70.1055 32.625 69.7969 31.8281 69.2656 31.3359C68.7422 30.8359 67.9414 30.5859 66.8633 30.5859C65.6914 30.5859 64.8125 31.0078 64.2266 31.8516C63.6484 32.6875 63.3516 33.9883 63.3359 35.7539V37.043C63.3359 38.8867 63.6133 40.2344 64.168 41.0859C64.7305 41.9375 65.6133 42.3633 66.8164 42.3633C67.9023 42.3633 68.7109 42.1172 69.2422 41.625C69.7812 41.125 70.0898 40.3555 70.168 39.3164H73.6836ZM79.7305 45H76.2148V27.9375H79.7305V45ZM89.3633 39.0586H82.7656V36.3281H89.3633V39.0586ZM102.57 38.0273H95.8203V45H92.3047V27.9375H103.414V30.7852H95.8203V35.1914H102.57V38.0273ZM109.191 45H105.676V27.9375H109.191V45Z" fill="white"/>
</svg>
