<svg width="184" height="47" viewBox="0 0 184 47" fill="none" xmlns="http://www.w3.org/2000/svg">
<path d="M13.0156 20.7891C9.15625 19.6797 6.34375 18.3203 4.57812 16.7109C2.82812 15.0859 1.95312 13.0859 1.95312 10.7109C1.95312 8.02344 3.02344 5.80469 5.16406 4.05469C7.32031 2.28906 10.1172 1.40625 13.5547 1.40625C15.8984 1.40625 17.9844 1.85937 19.8125 2.76562C21.6562 3.67188 23.0781 4.92188 24.0781 6.51562C25.0938 8.10938 25.6016 9.85156 25.6016 11.7422H21.0781C21.0781 9.67969 20.4219 8.0625 19.1094 6.89062C17.7969 5.70312 15.9453 5.10938 13.5547 5.10938C11.3359 5.10938 9.60156 5.60156 8.35156 6.58594C7.11719 7.55469 6.5 8.90625 6.5 10.6406C6.5 12.0312 7.08594 13.2109 8.25781 14.1797C9.44531 15.1328 11.4531 16.0078 14.2812 16.8047C17.125 17.6016 19.3438 18.4844 20.9375 19.4531C22.5469 20.4062 23.7344 21.5234 24.5 22.8047C25.2812 24.0859 25.6719 25.5938 25.6719 27.3281C25.6719 30.0938 24.5938 32.3125 22.4375 33.9844C20.2812 35.6406 17.3984 36.4688 13.7891 36.4688C11.4453 36.4688 9.25781 36.0234 7.22656 35.1328C5.19531 34.2266 3.625 32.9922 2.51562 31.4297C1.42188 29.8672 0.875 28.0938 0.875 26.1094H5.39844C5.39844 28.1719 6.15625 29.8047 7.67188 31.0078C9.20312 32.1953 11.2422 32.7891 13.7891 32.7891C16.1641 32.7891 17.9844 32.3047 19.25 31.3359C20.5156 30.3672 21.1484 29.0469 21.1484 27.375C21.1484 25.7031 20.5625 24.4141 19.3906 23.5078C18.2188 22.5859 16.0938 21.6797 13.0156 20.7891ZM37.8594 24.2578L35.1406 27.0938V36H30.8047V0H35.1406V21.7734L37.4609 18.9844L45.3594 10.6406H50.6328L40.7656 21.2344L51.7812 36H46.6953L37.8594 24.2578ZM63.4062 29.6484L69.3125 10.6406H73.9531L63.7578 39.9141C62.1797 44.1328 59.6719 46.2422 56.2344 46.2422L55.4141 46.1719L53.7969 45.8672V42.3516L54.9688 42.4453C56.4375 42.4453 57.5781 42.1484 58.3906 41.5547C59.2188 40.9609 59.8984 39.875 60.4297 38.2969L61.3906 35.7188L52.3438 10.6406H57.0781L63.4062 29.6484ZM91.0391 22.1953H83.0234V36H78.5V1.875H89.7969C93.6406 1.875 96.5938 2.75 98.6562 4.5C100.734 6.25 101.773 8.79688 101.773 12.1406C101.773 14.2656 101.195 16.1172 100.039 17.6953C98.8984 19.2734 97.3047 20.4531 95.2578 21.2344L103.273 35.7188V36H98.4453L91.0391 22.1953ZM83.0234 18.5156H89.9375C92.1719 18.5156 93.9453 17.9375 95.2578 16.7812C96.5859 15.625 97.25 14.0781 97.25 12.1406C97.25 10.0312 96.6172 8.41406 95.3516 7.28906C94.1016 6.16406 92.2891 5.59375 89.9141 5.57812H83.0234V18.5156ZM112.133 36H107.797V10.6406H112.133V36ZM107.445 3.91406C107.445 3.21094 107.656 2.61719 108.078 2.13281C108.516 1.64844 109.156 1.40625 110 1.40625C110.844 1.40625 111.484 1.64844 111.922 2.13281C112.359 2.61719 112.578 3.21094 112.578 3.91406C112.578 4.61719 112.359 5.20312 111.922 5.67188C111.484 6.14062 110.844 6.375 110 6.375C109.156 6.375 108.516 6.14062 108.078 5.67188C107.656 5.20312 107.445 4.61719 107.445 3.91406ZM118.062 23.1094C118.062 19.1562 118.977 16.0156 120.805 13.6875C122.633 11.3438 125.055 10.1719 128.07 10.1719C131.164 10.1719 133.578 11.2656 135.312 13.4531L135.523 10.6406H139.484V35.3906C139.484 38.6719 138.508 41.2578 136.555 43.1484C134.617 45.0391 132.008 45.9844 128.727 45.9844C126.898 45.9844 125.109 45.5938 123.359 44.8125C121.609 44.0312 120.273 42.9609 119.352 41.6016L121.602 39C123.461 41.2969 125.734 42.4453 128.422 42.4453C130.531 42.4453 132.172 41.8516 133.344 40.6641C134.531 39.4766 135.125 37.8047 135.125 35.6484V33.4688C133.391 35.4688 131.023 36.4688 128.023 36.4688C125.055 36.4688 122.648 35.2734 120.805 32.8828C118.977 30.4922 118.062 27.2344 118.062 23.1094ZM122.422 23.6016C122.422 26.4609 123.008 28.7109 124.18 30.3516C125.352 31.9766 126.992 32.7891 129.102 32.7891C131.836 32.7891 133.844 31.5469 135.125 29.0625V17.4844C133.797 15.0625 131.805 13.8516 129.148 13.8516C127.039 13.8516 125.391 14.6719 124.203 16.3125C123.016 17.9531 122.422 20.3828 122.422 23.6016ZM150.383 13.7109C152.305 11.3516 154.805 10.1719 157.883 10.1719C163.242 10.1719 165.945 13.1953 165.992 19.2422V36H161.656V19.2188C161.641 17.3906 161.219 16.0391 160.391 15.1641C159.578 14.2891 158.305 13.8516 156.57 13.8516C155.164 13.8516 153.93 14.2266 152.867 14.9766C151.805 15.7266 150.977 16.7109 150.383 17.9297V36H146.047V0H150.383V13.7109ZM178.367 4.5V10.6406H183.102V13.9922H178.367V29.7188C178.367 30.7344 178.578 31.5 179 32.0156C179.422 32.5156 180.141 32.7656 181.156 32.7656C181.656 32.7656 182.344 32.6719 183.219 32.4844V36C182.078 36.3125 180.969 36.4688 179.891 36.4688C177.953 36.4688 176.492 35.8828 175.508 34.7109C174.523 33.5391 174.031 31.875 174.031 29.7188V13.9922H169.414V10.6406H174.031V4.5H178.367Z" fill="white"/>
</svg>
