<svg width="255" height="74" viewBox="0 0 255 74" fill="none" xmlns="http://www.w3.org/2000/svg">
<rect width="200" height="74" fill="#AC314E"/>
<path d="M58.3672 30.7852H53.1406V45H49.625V30.7852H44.4688V27.9375H58.3672V30.7852ZM74.2695 45H70.7539V37.6875H63.8984V45H60.3828V27.9375H63.8984V34.8516H70.7539V27.9375H74.2695V45ZM83.668 38.7539H80.8672V45H77.3516V27.9375H83.6914C85.707 27.9375 87.2617 28.3867 88.3555 29.2852C89.4492 30.1836 89.9961 31.4531 89.9961 33.0938C89.9961 34.2578 89.7422 35.2305 89.2344 36.0117C88.7344 36.7852 87.9727 37.4023 86.9492 37.8633L90.6406 44.8359V45H86.8672L83.668 38.7539ZM80.8672 35.9062H83.7031C84.5859 35.9062 85.2695 35.6836 85.7539 35.2383C86.2383 34.7852 86.4805 34.1641 86.4805 33.375C86.4805 32.5703 86.25 31.9375 85.7891 31.4766C85.3359 31.0156 84.6367 30.7852 83.6914 30.7852H80.8672V35.9062ZM96.418 45H92.9023V27.9375H96.418V45ZM103.203 42.1758H110.668V45H99.6875V27.9375H103.203V42.1758ZM116.211 42.1758H123.676V45H112.695V27.9375H116.211V42.1758ZM135.969 37.6055H129.219V42.1758H137.141V45H125.703V27.9375H137.117V30.7852H129.219V34.8516H135.969V37.6055ZM145.52 38.7539H142.719V45H139.203V27.9375H145.543C147.559 27.9375 149.113 28.3867 150.207 29.2852C151.301 30.1836 151.848 31.4531 151.848 33.0938C151.848 34.2578 151.594 35.2305 151.086 36.0117C150.586 36.7852 149.824 37.4023 148.801 37.8633L152.492 44.8359V45H148.719L145.52 38.7539ZM142.719 35.9062H145.555C146.438 35.9062 147.121 35.6836 147.605 35.2383C148.09 34.7852 148.332 34.1641 148.332 33.375C148.332 32.5703 148.102 31.9375 147.641 31.4766C147.188 31.0156 146.488 30.7852 145.543 30.7852H142.719V35.9062Z" fill="white"/>
</svg>
